# xmcd CD database file
#
# Track frame offsets:
#	212
#	14567
#	34625
#	49392
#	65885
#	84632
#	97212
#	118955
#	130985
#	146485
#	164100
#	183860
#	194637
#	209655
#	222360
#	233785
#	246365
#
# Disc length: 3458 seconds
#
# Revision: 4
# Processed by: cddbd v1.5.1PL2 Copyright (c) Steve Scherf et al.
# Submitted via: CDex 1.51
#
DISCID=190d8011
DTITLE=The Nitty Gritty Dirt Band - Will The Circle Be Unbroken - Disc 1
DYEAR=1972
DGENRE=Country
TTITLE0=Grand Ole Opry
TTITLE1=Keep On The Sunny Side
TTITLE2=Nashville Blues
TTITLE3=You Are My Flower
TTITLE4=The Precious Jewel
TTITLE5=Dark As A Dungeon
TTITLE6=Tennessee Stud
TTITLE7=Black Mountain Rag
TTITLE8=The Wreck On The Highway
TTITLE9=The End Of The World
TTITLE10=I Saw The Light
TTITLE11=Sunny Side Of The Mountain
TTITLE12=Nine Pound Hammer
TTITLE13=Losin' You
TTITLE14=Honky Tonkin'
TTITLE15=You Don't Know My Mind
TTITLE16=My Walkin' Shoes
EXTD=YEAR: 1972
EXTT0=
EXTT1=
EXTT2=
EXTT3=
EXTT4=
EXTT5=
EXTT6=
EXTT7=
EXTT8=
EXTT9=
EXTT10=
EXTT11=
EXTT12=
EXTT13=
EXTT14=
EXTT15=
EXTT16=
PLAYORDER=
